<svg width="1440" height="2421" viewBox="0 0 1440 2421" fill="none" xmlns="http://www.w3.org/2000/svg">
<line x1="4.37114e-08" y1="2420.5" x2="1440" y2="2420.5" stroke="white"/>
<line y1="0.5" x2="1440" y2="0.5" stroke="white"/>
<line x1="70" y1="300.5" x2="1370" y2="300.5" stroke="white"/>
<line x1="70" y1="900.5" x2="1370" y2="900.5" stroke="white"/>
<line x1="4.37114e-08" y1="600.5" x2="1440" y2="600.5" stroke="white"/>
<line x1="70" y1="1500.5" x2="1370" y2="1500.5" stroke="white"/>
<line x1="4.37114e-08" y1="1200.5" x2="1440" y2="1200.5" stroke="white"/>
<line x1="4.37114e-08" y1="1800.5" x2="1440" y2="1800.5" stroke="white"/>
<line x1="70" y1="2100.5" x2="1370" y2="2100.5" stroke="white"/>
<line x1="70.5" y1="1" x2="70.4999" y2="2421" stroke="white"/>
<line x1="1370.5" y1="1" x2="1370.5" y2="2421" stroke="white"/>
<line x1="380.5" y1="1" x2="380.5" y2="301" stroke="white"/>
<line x1="380.5" y1="1201" x2="380.5" y2="1501" stroke="white"/>
<line x1="1060.5" y1="601" x2="1060.5" y2="901" stroke="white"/>
<line x1="1060.5" y1="1801" x2="1060.5" y2="2101" stroke="white"/>
<line x1="710.5" y1="1" x2="710.5" y2="2421" stroke="white"/>
</svg>
