<svg width="669" height="236" viewBox="0 0 669 236" fill="none" xmlns="http://www.w3.org/2000/svg">
<rect x="0.5" y="0.5" width="667" height="235" stroke="white"/>
<line x1="4.37114e-08" y1="66.5" x2="668" y2="66.5001" stroke="white"/>
<line x1="209.5" y1="-2.18557e-08" x2="209.5" y2="236" stroke="white"/>
<path d="M209 172.121H238.736L248.668 163.058L219.472 125.535L221.638 115.566L251.449 151.252L238.509 105.819L242.5 97L256.644 141.272L266.704 128.69L276.235 141.272L290.379 97L294.37 105.819L281.43 151.252L311.241 115.566L313.407 125.535L284.211 163.058L294.146 172.121H345.203" stroke="white" stroke-miterlimit="10"/>
<path d="M533.49 129.311L539.946 140.602L542.57 131.963L548.855 132.103" stroke="white" stroke-miterlimit="10"/>
<path d="M345.205 172.122V134.031H379.124V172.122" stroke="white" stroke-miterlimit="10"/>
<path d="M379.122 134.031L398.252 111.972L365.448 111.811L345.203 134.031" stroke="white" stroke-miterlimit="10"/>
<path d="M440.727 113.361C440.727 113.361 465.435 103.003 475.711 122.996L483.104 110.68H478.691C478.694 110.68 457.747 97.3145 440.727 113.361Z" stroke="white" stroke-miterlimit="10"/>
<path d="M475.714 122.996L444.295 172.123H444.185H379.123L397.095 150.413L398.693 111.467" stroke="white" stroke-miterlimit="10"/>
<path d="M483.63 110.618L487.575 115.631L451.838 172.216H521.033H521.225L540.329 105.389L561.657 172.216H594.88" stroke="white" stroke-miterlimit="10"/>
<path d="M594.881 172.215H619.617L610.136 153.297L629.407 155.31L623.555 132.302L647.82 142.786L644.592 129.305L630.753 106.891L655.088 121.525L665.287 155.508L635.874 148.374L642.17 165.815L630.086 165.484L632.238 172.215H668.002" stroke="white" stroke-miterlimit="10"/>
<path d="M635.426 114.46L607.025 105.461L610.512 109.342L605.342 111.287L637.834 118.359" stroke="white" stroke-miterlimit="10"/>
</svg>
