<svg width="280" height="383" viewBox="0 0 280 383" fill="none" xmlns="http://www.w3.org/2000/svg">
<rect x="0.5" y="0.5" width="279" height="382" stroke="white"/>
<line x1="4.37114e-08" y1="52.5" x2="280" y2="52.5" stroke="white"/>
<line x1="4.37114e-08" y1="143.5" x2="280" y2="143.5" stroke="white"/>
<path d="M0 117.825H18.1397L24.1985 112.296L6.38809 89.4067L7.70946 83.3253L25.8946 105.095L18.001 77.3799L20.4358 72L29.0637 99.0068L35.2006 91.3316L41.0146 99.0068L49.6425 72L52.0773 77.3799L44.1837 105.095L62.3689 83.3253L63.6903 89.4067L45.8799 112.296L51.9408 117.825H83.0863" stroke="white" stroke-miterlimit="10"/>
<path d="M197.945 91.7109L201.883 98.5991L203.484 93.3289L207.318 93.4144" stroke="white" stroke-miterlimit="10"/>
<path d="M83.0879 117.826V94.5898H103.779V117.826" stroke="white" stroke-miterlimit="10"/>
<path d="M103.777 94.5901L115.447 81.1338L95.4354 81.0352L83.0859 94.5901" stroke="white" stroke-miterlimit="10"/>
<path d="M141.357 81.9793C141.357 81.9793 156.43 75.6611 162.699 87.8568L167.209 80.3438H164.516C164.518 80.3438 151.74 72.1907 141.357 81.9793Z" stroke="white" stroke-miterlimit="10"/>
<path d="M162.7 87.8571L143.533 117.826H143.466H103.777L114.74 104.582L115.715 80.8242" stroke="white" stroke-miterlimit="10"/>
<path d="M167.529 80.307L169.935 83.3652L148.135 117.883H190.345H190.462L202.116 77.1172L215.126 117.883H235.393" stroke="white" stroke-miterlimit="10"/>
<path d="M235.395 117.88H250.484L244.7 106.34L256.456 107.568L252.886 93.5329L267.688 99.9278L265.719 91.7045L257.277 78.0312L272.122 86.9582L278.344 107.688L260.401 103.337L264.242 113.976L256.87 113.774L258.183 117.88H280" stroke="white" stroke-miterlimit="10"/>
<path d="M260.127 82.6497L242.802 77.1602L244.929 79.5278L241.775 80.7139L261.596 85.0283" stroke="white" stroke-miterlimit="10"/>
</svg>
