<svg width="1300" height="461" viewBox="0 0 1300 461" fill="none" xmlns="http://www.w3.org/2000/svg">
<line x1="420.5" y1="-2.18557e-08" x2="420.5" y2="461" stroke="white"/>
<rect x="0.5" y="0.5" width="1299" height="460" stroke="white"/>
<path d="M422 371.026H478.816L497.793 353.709L442.008 282.015L446.147 262.967L503.106 331.152L478.382 244.345L486.008 227.494L513.032 312.084L532.254 288.044L550.464 312.084L577.488 227.494L585.114 244.345L560.39 331.152L617.349 262.967L621.488 282.015L565.703 353.709L584.687 371.026H682.239" stroke="white" stroke-miterlimit="10"/>
<path d="M1041.99 289.231L1054.33 310.806L1059.34 294.299L1071.35 294.567" stroke="white" stroke-miterlimit="10"/>
<path d="M682.242 371.026V298.247H747.051V371.026" stroke="white" stroke-miterlimit="10"/>
<path d="M747.049 298.247L783.599 256.1L720.921 255.791L682.24 298.247" stroke="white" stroke-miterlimit="10"/>
<path d="M864.752 258.749C864.752 258.749 911.961 238.96 931.596 277.159L945.722 253.627H937.289C937.295 253.627 897.272 228.09 864.752 258.749Z" stroke="white" stroke-miterlimit="10"/>
<path d="M931.601 277.16L871.569 371.026H871.359H747.047L781.385 329.545L784.438 255.132" stroke="white" stroke-miterlimit="10"/>
<path d="M946.725 253.511L954.263 263.09L885.98 371.205H1018.19H1018.56L1055.06 243.521L1095.81 371.205H1159.29" stroke="white" stroke-miterlimit="10"/>
<path d="M1159.29 371.205H1206.55L1188.44 335.06L1225.26 338.905L1214.08 294.945L1260.44 314.975L1254.27 289.218L1227.83 246.392L1274.33 274.352L1293.81 339.283L1237.61 325.653L1249.64 358.976L1226.55 358.344L1230.67 371.205H1299" stroke="white" stroke-miterlimit="10"/>
<path d="M1236.76 260.852L1182.49 243.658L1189.15 251.074L1179.28 254.789L1241.36 268.302" stroke="white" stroke-miterlimit="10"/>
<line x1="-4.37114e-08" y1="138.5" x2="1300" y2="138.5" stroke="white"/>
</svg>
