<svg width="320" height="3717" viewBox="0 0 320 3717" fill="none" xmlns="http://www.w3.org/2000/svg">
<line x1="4.37114e-08" y1="3716.5" x2="320" y2="3716.5" stroke="white"/>
<line y1="0.5" x2="320" y2="0.5" stroke="white"/>
<line x1="20.5" y1="1" x2="20.4998" y2="3717" stroke="white"/>
<line x1="300.5" y1="1" x2="300.5" y2="3717" stroke="white"/>
<line x1="20" y1="98.5" x2="300" y2="98.5" stroke="white"/>
<line x1="20" y1="706.5" x2="300" y2="706.5" stroke="white"/>
<line x1="20" y1="1085.5" x2="300" y2="1085.5" stroke="white"/>
<line x1="20" y1="1680.5" x2="300" y2="1680.5" stroke="white"/>
<line x1="20" y1="1944.5" x2="300" y2="1944.5" stroke="white"/>
<line x1="20" y1="2624.5" x2="300" y2="2624.5" stroke="white"/>
<line x1="-4.37114e-08" y1="1846.5" x2="320" y2="1846.5" stroke="white"/>
<line x1="4.37114e-08" y1="2778.5" x2="320" y2="2778.5" stroke="white"/>
<line x1="20" y1="2876.5" x2="300" y2="2876.5" stroke="white"/>
<line x1="20" y1="3457.5" x2="300" y2="3457.5" stroke="white"/>
<line x1="4.37114e-08" y1="986.5" x2="320" y2="986.5" stroke="white"/>
</svg>
