<svg width="280" height="216" viewBox="0 0 280 216" fill="none" xmlns="http://www.w3.org/2000/svg">
<path d="M0 214.979H102.083C62.1945 198.688 33.9956 158.678 33.9956 111.89C33.9956 50.6465 82.3195 1 141.931 1C201.542 1 249.866 50.6465 249.866 111.89C249.866 158.689 221.647 198.719 181.729 215H280" stroke="white" stroke-miterlimit="10"/>
<path d="M70.3184 173.535L95.1531 141.211L126.616 173.535L156.422 141.211L182.913 173.535L213.543 141.211" stroke="white" stroke-miterlimit="10"/>
<path d="M105.313 108.414C120.316 108.414 132.478 95.919 132.478 80.5058C132.478 65.0925 120.316 52.5977 105.313 52.5977C90.3104 52.5977 78.1484 65.0925 78.1484 80.5058C78.1484 95.919 90.3104 108.414 105.313 108.414Z" stroke="white" stroke-miterlimit="10"/>
<path d="M178.836 108.414C193.839 108.414 206.001 95.919 206.001 80.5058C206.001 65.0925 193.839 52.5977 178.836 52.5977C163.834 52.5977 151.672 65.0925 151.672 80.5058C151.672 95.919 163.834 108.414 178.836 108.414Z" stroke="white" stroke-miterlimit="10"/>
</svg>
