<svg width="212" height="175" viewBox="0 0 212 175" fill="none" xmlns="http://www.w3.org/2000/svg">
<path d="M135.115 41.5423C134.322 43.218 136.035 44.7358 135.566 46.3604C135.469 46.6998 135.819 46.9322 136.13 47.0875C140.817 49.4494 144.448 53.0041 148.528 56.0186C150.493 57.4648 151.836 59.6769 153.162 61.6744C154.73 64.0171 156.433 65.8344 159.562 66.9463C162.255 67.9064 164.573 69.9006 167.391 70.9098C168.301 71.238 168.228 72.1361 168.706 72.7333C170.422 74.935 172.653 76.1033 175.601 76.2309C178.535 76.3544 181.363 76.6313 183.788 78.7353C184.716 79.5411 186.191 79.953 187.713 80.0899C192.16 80.4919 196.326 82.0863 200.378 83.9109C201.747 84.5287 201.873 85.3792 200.614 85.9356C198.716 86.7803 197.386 88.0122 196.401 89.6059C195.899 90.4331 195.003 90.7525 193.971 91.0591C186.819 93.1733 180.626 96.575 175.094 100.903C172.1 103.243 168.876 105.413 164.472 105.772C163.806 105.83 162.995 106.068 162.641 106.492C160.903 108.604 157.631 109.171 156.043 111.405C155.47 112.212 154.508 112.17 153.624 112.283C150.907 112.643 148.732 113.749 146.773 115.285C145.01 116.681 143.156 117.906 140.297 117.2C139.591 117.023 138.669 117.322 137.958 117.59C133.733 119.261 128.924 119.792 124.919 121.881C123.992 122.362 122.879 122.146 121.9 122.429C120.43 122.859 118.748 122.846 117.937 124.372C117.465 125.26 116.234 125.772 114.971 125.434C113.378 125.002 112.227 125.563 111.036 126.099C107.965 127.525 104.417 128.026 101.299 129.399C99.4898 130.203 97.174 129.759 95.1107 129.834C92.5628 129.927 90.685 130.646 89.4626 132.526C89.0209 133.2 88.4041 133.784 87.9447 134.465C87.2271 135.506 86.2853 135.983 84.768 135.559C82.3047 134.875 79.9692 135.948 77.482 135.455C76.6471 135.293 76.1168 136.059 75.4883 136.469C74.1246 137.336 72.5091 137.79 70.9978 138.418C68.516 139.462 66.2781 140.787 63.1871 140.027C59.2798 142.367 56.8275 138.64 53.728 137.642C51.5644 134.523 48.1917 134.365 44.9537 134.706C42.4495 134.969 40.5138 134.923 38.6346 132.911C37.5228 131.723 35.7505 130.95 33.998 130.537C31.4782 129.942 29.3267 128.928 27.6975 127.014C27.2812 126.526 26.5809 126.219 26.0154 125.82C25.2567 125.286 24.0708 124.839 23.8247 124.19C22.5723 120.862 18.4538 120.554 16.2239 118.31C15.8654 117.944 15.1761 117.706 14.6303 117.614C11.6585 117.138 9.4152 115.047 6.50662 114.406C5.45745 114.182 4.75724 113.284 3.98335 112.589C3.24532 111.929 3.30989 111.383 3.90485 110.714C6.3345 108.027 7.99176 104.907 9.742 101.84C10.9699 99.6723 13.5226 98.5435 15.7249 97.2349C17.2168 96.3519 18.4374 95.3905 18.628 93.8172C19.0373 90.6262 21.3773 88.4644 23.2813 86.0981C24.0068 85.191 24.7433 84.3528 24.8687 83.2203C25.1241 81.1536 26.4813 79.7721 28.257 78.6556C29.9156 77.6236 31.4704 76.5224 32.2517 74.7779C32.688 73.8006 33.5857 73.1008 34.7217 72.9162C37.2999 72.5038 39.0056 70.9863 40.2543 69.3372C42.2742 66.6761 44.7231 64.2436 46.0563 61.1744C46.3342 60.5323 46.898 60.0251 47.2759 59.4118C49.9456 55.0865 53.9642 51.6621 57.1277 47.6629C58.0973 46.4454 59.1205 45.2566 59.7436 43.8998C61.4258 40.1565 64.4569 37.3141 67.2088 34.2599C69.2771 31.9672 71.0269 29.4383 72.9128 27.0274C73.9885 25.6567 75.1076 24.4035 76.788 23.4566C78.632 22.4255 79.7014 20.5934 81.6234 19.506C82.4192 19.0526 82.8707 18.2373 84.0356 18.1135C85.1363 17.9974 85.1556 17.0181 85.5436 16.3159C86.2632 15.0001 87.3595 14.7383 88.9246 15.4257C90.8863 16.2932 92.1567 17.7887 92.9075 19.4232C93.911 21.6296 95.5842 23.123 97.8934 24.2876C99.6736 25.1946 101.145 26.3673 102.139 28.0718C102.996 29.5531 104.297 30.8869 105.9 31.9266C106.29 32.1835 106.667 32.6992 107.02 32.709C110.713 32.8281 113.286 35.2243 116.2 36.7601C122.135 39.8889 128.424 40.8745 135.115 41.5423Z" fill="#9F57FF"/>
</svg>
