<svg width="168" height="146" viewBox="0 0 168 146" fill="none" xmlns="http://www.w3.org/2000/svg">
<path d="M157.015 16.9747C157.12 17.7167 156.977 18.3879 157.305 18.698C159.567 20.897 158.456 23.6254 158.455 26.0578C158.443 27.9864 157.167 29.9777 156.229 31.8513C155.5 33.3199 155.011 34.7693 155.243 36.342C155.81 40.2037 155.96 44.1376 156.24 48.0093C156.462 51.1483 155.855 54.5219 154.798 57.7376C153.462 61.8037 152.696 66.0181 151.065 69.9914C150.065 72.4133 149.999 74.9803 148.555 77.3343C147.579 78.9263 147.987 80.9895 148.149 82.8265C148.321 84.7792 147.978 86.5403 146.265 87.9845C145.203 88.8718 145.045 89.9195 145.141 91.115C145.482 95.3699 144.056 99.4561 143.165 103.603C143.01 104.314 142.462 104.643 141.79 104.942C139.63 105.905 137.667 107.059 135.993 108.616C135.374 109.196 134.469 109.592 133.472 109.789C131.583 110.173 130.111 111.236 128.523 112.165C125.923 113.68 123.48 115.261 121.276 117.184C120.583 117.783 119.315 117.988 118.271 118.163C115.823 118.553 113.595 119.431 111.805 120.855C109.503 122.696 106.804 124.102 104.686 126.148C103.592 127.206 102.297 128.216 100.556 128.563C98.9644 128.884 97.8561 129.957 96.6521 130.778C94.1592 132.491 91.4127 133.682 88.3867 134.404C87.2596 134.675 86.237 135.119 85.8555 136.017C84.951 138.121 82.5657 138.726 80.7675 139.866C79.6884 140.548 78.2324 140.678 76.9881 140.053C75.4589 139.27 73.471 139.365 72.1242 138.218C71.8322 137.97 71.1176 137.73 70.8415 137.868C68.4886 139.066 66.8317 137.634 65.0041 136.901C64.145 136.556 63.2885 136.055 62.3412 136.118C60.8821 136.209 60.2552 135.367 59.4112 134.645C52.3543 128.652 49.7069 125.048 40.108 122.041C38.8671 121.648 37.9398 120.83 37.0555 119.983C35.5949 118.547 33.6149 118.176 31.4366 117.781C27.541 117.085 23.5557 116.214 20.0301 114.854C17.2533 113.783 15.1275 112.725 12.1681 114.088C10.3312 114.934 9.67656 113.369 8.65233 112.662C7.61101 111.93 7.79317 110.997 8.6848 110.24C10.6359 108.557 12.0542 106.451 14.2813 105.004C16.2354 103.735 18.1595 102.468 19.0039 100.369C19.1553 99.9943 19.4558 99.595 19.8138 99.3463C23.0786 97.079 26.5371 94.9644 28.332 91.5214C32.7849 89.3658 35.8865 85.8178 39.4763 82.8906C44.3276 78.9176 49.3572 74.9045 53.0735 69.9747C55.9091 68.7639 55.7062 65.4812 58.4636 64.2378C61.5551 62.8254 63.8162 60.4834 66.8352 58.9216C69.0711 57.7719 71.1771 55.9469 72.2759 53.8146C73.5981 51.2633 75.6036 49.317 78.0132 47.5065C79.7948 46.1604 82.1393 45.2348 83.0118 43.1078C86.791 41.9766 87.9066 37.6047 92.39 37.3356C95.4591 34.8899 99.5563 33.9531 102.85 31.8518C103.238 31.6007 103.75 31.3914 103.965 31.0636C105.14 29.3134 107.401 28.291 108.549 26.7629C109.969 24.8764 112.144 23.8999 113.55 22.4027C115.472 20.3467 118.027 19.4172 120.256 17.9963C124.198 15.4936 127.735 12.8552 129.679 8.81799C130.612 6.88013 131.838 4.82819 134.588 4.06413C135.003 3.95325 135.333 3.55154 135.688 3.26432C138.478 0.918719 138.463 0.919924 141.494 3.08314C143.578 4.55902 145.592 5.92403 148.387 6.65715C150.92 7.33363 153.516 8.78139 154.322 11.4853C154.612 12.4583 155.246 13.3906 155.945 14.1884C156.756 15.0678 157.596 15.919 157.015 16.9747Z" fill="#9F57FF"/>
</svg>
