<svg width="186" height="179" viewBox="0 0 186 179" fill="none" xmlns="http://www.w3.org/2000/svg">
<path d="M130.87 38.0771C130.995 38.615 131.285 39.0449 131.773 39.375C136.062 42.3212 140.435 45.1746 144.519 48.3497C144.734 48.5165 144.965 48.7133 145.228 48.7433C147.948 49.0995 148.409 51.2588 149.07 53.1175C149.451 54.1904 149.841 55.1082 150.904 55.624C152.267 56.3013 152.653 57.6725 153.289 58.8171C154.245 60.5389 155.497 61.7482 157.686 62.2095C161.478 63.014 162.618 65.9961 162.657 69.0825C162.719 73.1972 163.659 77.3448 161.829 81.5872C161.534 82.2747 161.811 82.8238 162.012 83.424C162.492 84.8974 162.454 86.3825 161.781 87.9995C160.724 90.562 159.342 93.1754 160.668 95.7753C159.618 98.4093 159.479 100.997 159.983 103.586C160.09 104.146 159.178 104.769 158.546 105.05C156.733 105.852 156.991 106.799 157.684 107.94C158.273 108.933 158.816 109.924 158.277 111.286C157.839 112.384 157.456 113.303 156.329 114.135C154.676 115.344 153.282 116.862 151.782 118.258C151.456 121.604 147.672 122.348 145.862 124.576C145.485 125.043 144.893 125.404 144.632 125.899C143.728 127.607 142.218 128.52 140.419 129.264C138.909 129.888 137.243 130.491 137.204 132.44C137.202 132.754 136.916 133.199 136.63 133.443C132.812 136.81 129.357 140.608 124.31 142.553C122.67 143.18 121.729 144.757 120.249 145.729C116.833 147.954 113.298 149.888 109.435 151.198C109.135 151.299 108.796 151.32 108.555 151.48C104.578 154.1 100.592 153.606 96.5381 153.034C93.6301 152.622 90.6558 152.658 87.5793 152.982C83.1694 153.441 78.6667 154.035 74.3494 153.52C71.7117 153.211 69.0864 152.694 66.6366 151.888C62.8142 150.648 58.6664 150.875 54.6216 150.611C52.1944 150.458 49.9146 150.105 47.8157 149.185C45.9203 148.351 44.0447 147.468 42.2055 146.543C41.0289 145.946 40.1897 145.18 39.8625 143.779C39.2217 141.034 37.6397 138.651 37.2448 135.756C36.6816 131.632 36.7717 127.616 39.2301 123.607C40.8134 121.017 41.2907 118.434 40.0364 115.948C39.5126 114.91 39.7777 113.787 40.5042 113.057C42.1662 111.404 41.9144 109.69 41.4434 108.149C40.9422 106.548 41.1207 104.993 41.2988 103.35C41.5123 101.401 41.238 99.4977 42.3274 97.5201C42.8714 96.5443 42.9745 95.3023 42.9318 94.2342C42.8783 92.9711 43.3017 91.8431 43.9116 90.7087C44.662 89.303 45.4058 87.9132 44.8417 86.4192C44.5302 85.5994 45.0291 84.997 45.7764 84.4821C47.6364 83.1929 48.4899 81.7603 47.107 80.0031C46.8292 79.6548 46.7808 79.2408 46.9136 78.7229C47.8325 75.366 48.6781 72.0084 49.5636 68.6432C49.6308 68.3714 49.7092 68.0061 49.9101 67.8546C52.1984 66.1991 52.0984 63.7445 53.1541 61.6712C53.3392 61.3148 53.6173 60.9114 53.4095 60.6154C52.1333 58.8671 53.6738 57.6389 54.7053 56.154C57.2916 52.4567 59.5359 48.6313 59.3249 44.2789C59.1804 41.5336 61.6861 39.7307 63.0095 37.5224C63.7687 36.25 64.7818 35.1626 64.7606 33.6453C64.7523 32.8478 65.1955 31.6723 66.3355 31.8486C68.4586 32.1802 70.4884 31.2562 72.5516 31.1796C75.2592 31.0785 77.9333 31.3449 80.6108 31.1839C83.6961 30.9924 86.8077 31.1133 89.9204 30.2817C90.3213 30.1796 90.7917 29.9547 91.1135 30.0428C95.7854 31.3179 101.074 29.8518 105.735 31.3077C110.573 32.8247 115.869 33.2836 120.514 35.2861C121.97 35.9165 123.643 36.0494 125.475 35.6011C127.392 35.1475 130.192 36.5902 130.87 38.0771Z" fill="#EF0000"/>
</svg>
