<svg width="768" height="3248" viewBox="0 0 768 3248" fill="none" xmlns="http://www.w3.org/2000/svg">
<line x1="-4.37114e-08" y1="3247.5" x2="768" y2="3247.5" stroke="white"/>
<line y1="0.5" x2="768" y2="0.5" stroke="white"/>
<line x1="50" y1="202.5" x2="718" y2="202.5" stroke="white"/>
<line x1="50" y1="405.5" x2="718" y2="405.5" stroke="white"/>
<line x1="50" y1="608.5" x2="718" y2="608.5" stroke="white"/>
<line x1="-4.37114e-08" y1="811.5" x2="768" y2="811.5" stroke="white"/>
<line x1="50" y1="1014.5" x2="718" y2="1014.5" stroke="white"/>
<line x1="50" y1="1217.5" x2="718" y2="1217.5" stroke="white"/>
<line x1="50" y1="1420.5" x2="718" y2="1420.5" stroke="white"/>
<line x1="-4.37114e-08" y1="1623.5" x2="768" y2="1623.5" stroke="white"/>
<line x1="50" y1="1826.5" x2="718" y2="1826.5" stroke="white"/>
<line x1="50" y1="2029.5" x2="718" y2="2029.5" stroke="white"/>
<line x1="50" y1="2232.5" x2="718" y2="2232.5" stroke="white"/>
<line x1="-4.37114e-08" y1="2435.5" x2="768" y2="2435.5" stroke="white"/>
<line x1="50" y1="2638.5" x2="718" y2="2638.5" stroke="white"/>
<line x1="50" y1="2841.5" x2="718" y2="2841.5" stroke="white"/>
<line x1="50" y1="3044.5" x2="718" y2="3044.5" stroke="white"/>
<line x1="718.5" y1="2.55125e-08" x2="718.5" y2="3248" stroke="white"/>
<line x1="50.5" y1="2.55125e-08" x2="50.4998" y2="3248" stroke="white"/>
<line x1="259.5" y1="406" x2="259.5" y2="609" stroke="white"/>
<line x1="259.5" y1="1218" x2="259.5" y2="1421" stroke="white"/>
<line x1="259.5" y1="2030" x2="259.5" y2="2233" stroke="white"/>
<line x1="259.5" y1="2842" x2="259.5" y2="3045" stroke="white"/>
</svg>
