<svg width="280" height="208" viewBox="0 0 280 208" fill="none" xmlns="http://www.w3.org/2000/svg">
<path d="M0 206.637H101.211C82.1286 190.714 69.4134 162.225 69.4134 129.714C69.4134 79.8095 99.3974 39.3477 136.385 39.3477C173.373 39.3477 203.358 79.8095 203.358 129.714C203.358 162.467 190.449 191.148 171.116 207H221.263H280" stroke="white" stroke-miterlimit="10"/>
<path d="M80.9395 79.0234C80.9395 79.0234 136.566 130.813 191.826 79.0234" stroke="white" stroke-miterlimit="10"/>
<path d="M70.7949 131.719C70.7949 131.719 130.281 188.406 201.98 131.719" stroke="white" stroke-miterlimit="10"/>
<path d="M114.736 44.1862V5.93134C114.736 5.93134 139.569 -5.16417 161.488 5.93134V45.9296" stroke="white" stroke-miterlimit="10"/>
<path d="M114.734 16.0625C114.734 16.0625 70.79 14.1074 39.3203 45.9327C39.3203 45.9327 100.774 30.7759 114.734 32.3379" stroke="white" stroke-miterlimit="10"/>
<path d="M136.385 39.3594V156.905" stroke="white" stroke-miterlimit="10"/>
</svg>
